Coordinates
version=1
nRows=39
nColumns=18
inDegrees=yes

Units are S.I. units (second, meters, Newtons, ...)
Angles are in degrees.

endheader
time	ground_thorax_rot_x	ground_thorax_rot_y	ground_thorax_rot_z	ground_thorax_tx	ground_thorax_ty	ground_thorax_tz	clav_prot	clav_elev	scapula_abduction	scapula_elevation	scapula_upward_rot	scapula_winging	plane_elv	shoulder_elv	axial_rot	elbow_flexion	pro_sup
      0.00000000	      1.61186466	     -3.24912701	     -8.77144180	     -0.00423131	      0.00403036	     -0.00078352	    -24.02719697	     -6.16701269	    -15.31617126	     -5.20065298	     11.65134696	      6.40924132	    -29.35037790	     13.19969605	     49.14467633	      0.00000000	     34.32000000
      0.01000000	      1.56648927	     -3.28934232	     -8.76338585	     -0.00423131	      0.00403036	     -0.00078352	    -23.92784433	     -6.22697011	    -15.31836936	     -5.15257990	     11.31966455	      6.51062061	    -28.01329797	     13.68755564	     45.83465418	      0.00000000	     34.32000000
      0.02000000	      1.66762612	     -3.27410405	     -8.84111345	     -0.00423131	      0.00403036	     -0.00078352	    -23.95559805	     -6.11581220	    -15.38098282	     -5.07337028	     11.33863962	      6.46448158	    -27.19105781	     13.84317204	     43.57199533	      0.00000000	     34.32000000
      0.03000000	      1.52558501	     -3.18717372	     -8.84579980	     -0.00423131	      0.00403036	     -0.00078352	    -24.02840658	     -6.33807114	    -15.50221007	     -5.22746808	     11.25410269	      6.56861836	    -27.38073674	     14.19149321	     39.40142392	      0.00000000	     34.32000000
      0.04000000	      1.56393065	     -3.18102613	     -8.90087322	     -0.00423131	      0.00403036	     -0.00078352	    -23.99522822	     -6.30500341	    -15.41391549	     -5.21818170	     11.32344918	      6.53967392	    -27.45476916	     14.17089207	     39.73484691	      0.00000000	     34.32000000
      0.05000000	      1.38385912	     -3.10645302	     -8.82454827	     -0.00423131	      0.00403036	     -0.00078352	    -24.10163007	     -6.51968950	    -15.61642562	     -5.35836124	     11.20048852	      6.65146333	    -28.25420217	     14.11905689	     40.89886996	      0.00000000	     34.32000000
      0.06000000	      1.40536395	     -3.04702320	     -8.83992217	     -0.00423131	      0.00403036	     -0.00078352	    -24.10456122	     -6.50341113	    -15.58521819	     -5.36481201	     11.27159981	      6.62845565	    -28.64259207	     14.05648834	     41.39733421	      0.00000000	     34.32000000
      0.07000000	      1.41343956	     -3.20774056	     -8.79593888	     -0.00423131	      0.00403036	     -0.00078352	    -23.96464156	     -6.44899366	    -15.31528240	     -5.33420388	     11.34765265	      6.58882161	    -28.56205335	     14.05062913	     40.85929114	      0.00000000	     34.32000000
      0.08000000	      1.46199575	     -3.21271678	     -8.81083357	     -0.00423131	      0.00403036	     -0.00078352	    -23.95884406	     -6.44751047	    -15.30303894	     -5.33376735	     11.35196516	      6.58716227	    -28.54341795	     14.05194444	     40.88827172	      0.00000000	     34.32000000
      0.09000000	      2.02998313	     -3.53089224	     -8.69172706	     -0.00423131	      0.00403036	     -0.00078352	    -23.71353981	     -5.80331600	    -14.69983512	     -4.97644715	     11.93911814	      6.20262294	    -28.10707729	     13.84870756	     42.74390306	      0.00000000	     34.32000000
      0.10000000	      2.00043269	     -3.53865788	     -8.73774429	     -0.00423131	      0.00403036	     -0.00078352	    -23.71328031	     -5.83680443	    -14.71819407	     -4.98981543	     11.89197852	      6.22583066	    -28.11852467	     13.80784933	     42.76852447	      0.00000000	     34.32000000
      0.11000000	      1.55864464	     -3.37707247	     -8.75067820	     -0.00423131	      0.00403036	     -0.00078352	    -23.83679813	     -6.28462071	    -15.00868481	     -5.25796102	     11.56946256	      6.47210385	    -29.14925801	     13.72480211	     44.25221385	      0.00000000	     34.32000000
      0.12000000	      1.63370323	     -3.34753387	     -8.76627459	     -0.00423131	      0.00403036	     -0.00078352	    -23.90689826	     -6.16573919	    -15.06957400	     -5.21118633	     11.72313686	      6.39085931	    -29.72327952	     13.23127583	     49.01824134	      0.00000000	     34.32000000
      0.13000000	      1.53101530	     -3.34242636	     -8.92008300	     -0.00423131	      0.00403036	     -0.00078352	    -23.89820623	     -6.41119442	    -15.15864524	     -5.32488159	     11.43854817	      6.55217710	    -27.54565056	     14.06448797	     39.58031631	      0.00000000	     34.32000000
      0.14000000	      1.59684917	     -3.64050394	     -8.62683074	     -0.00423131	      0.00403036	     -0.00078352	    -23.45178284	     -6.26176323	    -14.63643159	     -5.08121359	     11.06281849	      6.57856795	    -26.69404458	     14.69558328	     37.76646701	      0.00000000	     34.32000000
      0.15000000	      1.56168231	     -3.25423584	     -8.78146367	     -0.00423131	      0.00403036	     -0.00078352	    -24.00089625	     -6.33303650	    -15.24794140	     -5.32027138	     11.62463391	      6.47860005	    -29.74903036	     13.28341599	     48.83375028	      0.00000000	     34.32000000
      0.16000000	      1.48417857	     -3.12540444	     -8.84763027	     -0.00423131	      0.00403036	     -0.00078352	    -24.10096748	     -6.53055239	    -15.58864238	     -5.37809493	     11.24346218	      6.64563325	    -27.58374146	     14.20780711	     39.43355739	      0.00000000	     34.32000000
      0.17000000	      1.39539716	     -3.20402118	     -8.75642939	     -0.00423131	      0.00403036	     -0.00078352	    -23.95438193	     -6.57112460	    -15.44398648	     -5.34506248	     11.03626360	      6.70968052	    -27.44992152	     14.47410697	     38.30080699	      0.00000000	     34.32000000
      0.18000000	      1.50329971	     -3.22004794	     -8.74418463	     -0.00423131	      0.00403036	     -0.00078352	    -23.97723573	     -6.35071887	    -15.29687054	     -5.28826996	     11.45819315	      6.52458549	    -28.79154220	     13.91245384	     41.30917965	      0.00000000	     34.32000000
      0.19000000	      1.48224803	     -3.21462942	     -8.76973683	     -0.00423131	      0.00403036	     -0.00078352	    -23.97550424	     -6.34155966	    -15.29387902	     -5.28213573	     11.46215502	      6.52042835	    -28.76997907	     13.91535070	     41.32936251	      0.00000000	     34.32000000
      0.20000000	      1.43135524	     -3.22786509	     -8.80619845	     -0.00423131	      0.00403036	     -0.00078352	    -23.96540550	     -6.40157074	    -15.31215571	     -5.30463345	     11.37444953	      6.56413442	    -28.39686203	     13.98525885	     40.47186444	      0.00000000	     34.32000000
      0.21000000	      1.49171229	     -3.49770982	     -8.80868705	     -0.00423131	      0.00403036	     -0.00078352	    -23.65983814	     -6.33654890	    -14.93916281	     -5.17016986	     11.13047124	      6.59420588	    -26.42948415	     14.38440665	     38.23694813	      0.00000000	     34.32000000
      0.22000000	      1.24206204	     -2.98985766	     -8.92884011	     -0.00423131	      0.00403036	     -0.00078352	    -24.04117066	     -6.78456293	    -15.65943141	     -5.46089145	     10.83036134	      6.84189680	    -26.87208552	     14.93629840	     33.08064911	      0.00000000	     34.32000000
      0.23000000	      1.63449748	     -3.24166083	     -8.74475123	     -0.00423131	      0.00403036	     -0.00078352	    -23.95753819	     -6.10804219	    -15.17050595	     -5.16943178	     11.72184960	      6.36969201	    -29.62279329	     13.18899523	     49.13033281	      0.00000000	     34.32000000
      0.24000000	      1.61069695	     -3.26836321	     -8.82820833	     -0.00423131	      0.00403036	     -0.00078352	    -23.90899353	     -6.23385501	    -15.17732075	     -5.20753302	     11.51051163	      6.46751871	    -27.84991697	     14.00019641	     40.50259621	      0.00000000	     34.32000000
      0.25000000	      1.53458415	     -3.32666928	     -8.75084921	     -0.00423131	      0.00403036	     -0.00078352	    -23.80356343	     -6.24609377	    -15.02274731	     -5.19665061	     11.45875585	      6.48365963	    -28.30998412	     14.01390186	     41.03072516	      0.00000000	     34.32000000
      0.26000000	      1.62840562	     -3.39335674	     -8.72577417	     -0.00423131	      0.00403036	     -0.00078352	    -23.76584522	     -6.06953502	    -14.84185795	     -5.13169591	     11.73684915	      6.34986045	    -29.02815733	     13.71455246	     42.89807295	      0.00000000	     34.32000000
      0.27000000	      1.65900232	     -3.38397583	     -8.78354011	     -0.00423131	      0.00403036	     -0.00078352	    -23.82353637	     -6.05097105	    -14.88095822	     -5.15113417	     11.85059673	      6.31611241	    -29.58451247	     13.20879795	     48.30953256	      0.00000000	     34.32000000
      0.28000000	      1.65227401	     -3.45376070	     -8.79690185	     -0.00423131	      0.00403036	     -0.00078352	    -23.76250262	     -6.03172780	    -14.82867532	     -5.10989026	     11.76566367	      6.32896635	    -28.63665214	     13.25115711	     47.07543021	      0.00000000	     34.32000000
      0.29000000	      1.82093073	     -3.59610762	     -8.69964999	     -0.00423131	      0.00403036	     -0.00078352	    -23.60652939	     -5.88314850	    -14.53295960	     -5.01481542	     11.87616214	      6.24527737	    -28.06943251	     13.75788851	     42.58908829	      0.00000000	     34.32000000
      0.30000000	      1.61018614	     -3.23029746	     -8.82104016	     -0.00423131	      0.00403036	     -0.00078352	    -23.92450975	     -6.16493119	    -15.13461571	     -5.19542676	     11.66181074	      6.40528352	    -28.50183683	     13.63665904	     43.45111539	      0.00000000	     34.32000000
      0.31000000	      1.55574570	     -3.19542295	     -8.79100361	     -0.00423131	      0.00403036	     -0.00078352	    -23.96543257	     -6.15237716	    -15.18510043	     -5.19886053	     11.70179470	      6.39124336	    -28.96644159	     13.55639637	     44.37548809	      0.00000000	     34.32000000
      0.32000000	      1.49194472	     -3.03452859	     -8.86558675	     -0.00423131	      0.00403036	     -0.00078352	    -24.08167891	     -6.30264465	    -15.57967549	     -5.21367436	     11.29303815	      6.54626583	    -27.09550453	     14.20190814	     38.71851758	      0.00000000	     34.32000000
      0.33000000	      1.69263070	     -3.20993590	     -8.74431435	     -0.00423131	      0.00403036	     -0.00078352	    -23.91252838	     -5.91555954	    -15.05059573	     -5.05891166	     11.87646668	      6.26027925	    -29.44083785	     13.20132827	     47.37068856	      0.00000000	     34.32000000
      0.34000000	      1.39846778	     -2.97159533	     -8.79816104	     -0.00423131	      0.00403036	     -0.00078352	    -24.10445768	     -6.26807226	    -15.57139101	     -5.21459725	     11.39156927	      6.50960415	    -28.82404726	     13.42869110	     45.90226244	      0.00000000	     34.32000000
      0.35000000	      1.69747914	     -3.18424765	     -8.69982554	     -0.00423131	      0.00403036	     -0.00078352	    -23.90636478	     -5.91381779	    -15.13019379	     -5.01500363	     11.71750367	      6.29783875	    -28.36760291	     13.63323382	     42.16967733	      0.00000000	     34.32000000
      0.36000000	      1.65724854	     -3.20122247	     -8.71518216	     -0.00423131	      0.00403036	     -0.00078352	    -23.91082950	     -5.91655582	    -15.13372551	     -5.01917601	     11.72406670	      6.29750861	    -28.35120771	     13.63147505	     42.18693455	      0.00000000	     34.32000000
      0.37000000	      1.40847341	     -3.11713895	     -8.84520295	     -0.00423131	      0.00403036	     -0.00078352	    -24.01378562	     -6.28827217	    -15.53468381	     -5.16556384	     11.17053006	      6.56925263	    -26.47745074	     14.17402677	     37.86431095	      0.00000000	     34.32000000
      0.38000000	      1.71396916	     -3.49563573	     -8.74542063	     -0.00423131	      0.00403036	     -0.00078352	    -23.71738778	     -5.83027955	    -14.67682865	     -5.00835222	     11.98003573	      6.20216360	    -29.16057056	     13.08037692	     47.48414042	      0.00000000	     34.32000000
